<svg xmlns="http://www.w3.org/2000/svg" xmlns:xlink="http://www.w3.org/1999/xlink" xml:space="preserve" width="5cm" height="5cm" shape-rendering="geometricPrecision" text-rendering="geometricPrecision" image-rendering="optimizeQuality" fill-rule="evenodd" clip-rule="evenodd" viewBox="0 0 500 500">
 <g id="Ebene_x0020_1">
  <metadata id="CorelCorpID_0Corel-Layer"/>
  <rect fill="#660033" width="500" height="500"/>
 </g>
 <g id="Ebene_x0020_2">
  <metadata id="CorelCorpID_1Corel-Layer"/>
  <path fill="white" d="M71.328 319.6c0,-20.603 12.973,-42.076 32.614,-51.13l43.321 -93.198c3.829,-8.237 13.045,-14.192 22.196,-14.192l161.463 0c9.151,0 18.367,5.955 22.196,14.192l43.321 93.198c19.641,9.054 32.614,30.527 32.614,51.13l-0.002 123.44c0,3.828 -3.161,6.96 -7.024,6.96l-40.171 0c-3.863,0 -7.024,-3.132 -7.024,-6.96l0 -41.801 -249.283 0 0 41.801c0,3.828 -3.161,6.96 -7.024,6.96l-40.171 0c-3.863,0 -7.024,-3.132 -7.024,-6.96l-0.002 -123.44zm330.733 7.16l-50.048 0c-9.598,0 -17.45,7.78 -17.45,17.29l0 17.29 67.498 0 0 -34.58zm-236.243 17.29c0,-9.51 -7.852,-17.29 -17.45,-17.29l-50.048 0 0 34.58 67.498 0 0 -17.29zm13.048 -154.775c-4.918,0.004 -7.671,1.174 -9.716,5.956l-28.644 66.929c-2.14,5.002 0.216,6.84 3.26,6.84l212.849 0c3.044,0 5.4,-1.838 3.26,-6.84l-28.644 -66.929c-2.045,-4.782 -4.798,-5.952 -9.716,-5.956l-142.649 0zm-35.314 -139.477l54.174 0 0 11 -20.599 0 0 58.486 -11 0 0 -58.486 -22.575 0 0 -11zm202.028 69.486l0 -69.284 11 0 0 69.284 -11 0zm-147.601 0l22.686 -69.284 17.006 0 22.686 69.284 -11.574 0 -4.919 -15.024 -29.391 0 -4.919 15.024 -11.575 0zm31.19 -59.905l-11.094 33.881 22.187 0 -11.093 -33.881zm52.47 59.905l17.159 -25.414 17.159 25.414 13.272 0 -23.795 -35.243 22.983 -34.041 -13.272 0 -16.347 24.212 -16.347 -24.212 -13.272 0 22.983 34.04 -23.795 35.244 13.272 0z"/>
 </g>
</svg>