<?xml version="1.0" encoding="UTF-8" standalone="no"?>
<svg
   xml:space="preserve"
   width="5cm"
   height="5cm"
   shape-rendering="geometricPrecision"
   text-rendering="geometricPrecision"
   image-rendering="optimizeQuality"
   fill-rule="evenodd"
   clip-rule="evenodd"
   viewBox="0 0 500 500"
   version="1.1"
   id="svg1"
   sodipodi:docname="ber-taxi.svg"
   inkscape:version="1.3.2 (091e20ef0f, 2023-11-25, custom)"
   xmlns:inkscape="http://www.inkscape.org/namespaces/inkscape"
   xmlns:sodipodi="http://sodipodi.sourceforge.net/DTD/sodipodi-0.dtd"
   xmlns="http://www.w3.org/2000/svg"
   xmlns:svg="http://www.w3.org/2000/svg"><defs
   id="defs1" /><sodipodi:namedview
   id="namedview1"
   pagecolor="#ffffff"
   bordercolor="#000000"
   borderopacity="0.25"
   inkscape:showpageshadow="2"
   inkscape:pageopacity="0.0"
   inkscape:pagecheckerboard="0"
   inkscape:deskcolor="#d1d1d1"
   inkscape:document-units="cm"
   showgrid="true"
   showguides="true"
   inkscape:zoom="2.67"
   inkscape:cx="91.947566"
   inkscape:cy="67.602996"
   inkscape:window-width="1896"
   inkscape:window-height="1127"
   inkscape:window-x="9"
   inkscape:window-y="61"
   inkscape:window-maximized="1"
   inkscape:current-layer="Ebene_x0020_2"><inkscape:grid
     id="grid1"
     units="px"
     originx="0"
     originy="0"
     spacingx="2.6458333"
     spacingy="2.6458333"
     empcolor="#0099e5"
     empopacity="0.30196078"
     color="#0099e5"
     opacity="0.14901961"
     empspacing="5"
     dotted="false"
     gridanglex="30"
     gridanglez="30"
     visible="true" /><sodipodi:guide
     position="266.89209,380.68281"
     orientation="0,-1"
     id="guide44"
     inkscape:locked="false" /><sodipodi:guide
     position="188.1766,450.2326"
     orientation="0,-1"
     id="guide45"
     inkscape:locked="false" /></sodipodi:namedview>
 <g
   id="Ebene_x0020_1"
   inkscape:label="Ebene 1">
  <metadata
   id="CorelCorpID_0Corel-Layer" />
  <rect
   fill="#660033"
   width="500"
   height="500"
   id="rect1" />
 </g>
 <g
   id="Ebene_x0020_2"
   inkscape:label="Ebene 2">
  <metadata
   id="CorelCorpID_1Corel-Layer" />
  <path
   fill="white"
   d="M71.328 319.6c0,-20.603 12.973,-42.076 32.614,-51.13l43.321 -93.198c3.829,-8.237 13.045,-14.192 22.196,-14.192l161.463 0c9.151,0 18.367,5.955 22.196,14.192l43.321 93.198c19.641,9.054 32.614,30.527 32.614,51.13l-0.002 123.44c0,3.828 -3.161,6.96 -7.024,6.96l-40.171 0c-3.863,0 -7.024,-3.132 -7.024,-6.96l0 -41.801 -249.283 0 0 41.801c0,3.828 -3.161,6.96 -7.024,6.96l-40.171 0c-3.863,0 -7.024,-3.132 -7.024,-6.96l-0.002 -123.44zm330.733 7.16l-50.048 0c-9.598,0 -17.45,7.78 -17.45,17.29l0 17.29 67.498 0 0 -34.58zm-236.243 17.29c0,-9.51 -7.852,-17.29 -17.45,-17.29l-50.048 0 0 34.58 67.498 0 0 -17.29zm13.048 -154.775c-4.918,0.004 -7.671,1.174 -9.716,5.956l-28.644 66.929c-2.14,5.002 0.216,6.84 3.26,6.84l212.849 0c3.044,0 5.4,-1.838 3.26,-6.84l-28.644 -66.929c-2.045,-4.782 -4.798,-5.952 -9.716,-5.956l-142.649 0zm-35.314 -139.477l54.174 0 0 11 -20.599 0 0 58.486 -11 0 0 -58.486 -22.575 0 0 -11zm202.028 69.486l0 -69.284 11 0 0 69.284 -11 0zm-147.601 0l22.686 -69.284 17.006 0 22.686 69.284 -11.574 0 -4.919 -15.024 -29.391 0 -4.919 15.024 -11.575 0zm31.19 -59.905l-11.094 33.881 22.187 0 -11.093 -33.881zm52.47 59.905l17.159 -25.414 17.159 25.414 13.272 0 -23.795 -35.243 22.983 -34.041 -13.272 0 -16.347 24.212 -16.347 -24.212 -13.272 0 22.983 34.04 -23.795 35.244 13.272 0z"
   id="path1" />
 <path
   style="fill:#660033;stroke-width:0.0763371"
   d="m 53.838111,17.994245 c -0.822531,0.465219 -0.499823,1.500991 -0.56239,2.273266 0.0519,1.034385 -0.113976,2.093525 0.100789,3.109397 0.465219,0.822531 1.500991,0.499822 2.273266,0.56239 2.058568,0 4.117136,0 6.175704,0 0.01142,7.070075 -0.02284,14.145344 0.01713,21.212174 0.0439,0.754199 0.867543,1.034188 1.517213,0.925597 1.243012,-0.03368 2.501374,0.06768 3.734677,-0.0514 0.753614,-0.133465 0.845092,-1.007113 0.776818,-1.63562 0,-6.816917 0,-13.633834 0,-20.45075 2.310444,-0.02271 4.631224,0.0455 6.935181,-0.03427 0.758404,-0.08182 0.941115,-0.940184 0.851208,-1.576416 -0.0336,-1.217575 0.06762,-2.450475 -0.0514,-3.65834 -0.133465,-0.753614 -1.007113,-0.845092 -1.63562,-0.776818 -6.58914,0.01144 -13.183477,-0.02285 -19.769372,0.01713 -0.121069,0.02788 -0.242138,0.05577 -0.363207,0.08366 z"
   id="path45"
   transform="scale(2.6458333)" /><path
   style="fill:#660033;stroke-width:0.0763371"
   d="m 86.605381,17.988728 c -1.163233,0.04859 -2.346704,-0.0717 -3.496434,0.08959 -0.814304,0.28345 -0.786449,1.318412 -1.098557,1.99687 -2.673648,8.211691 -5.407451,16.404563 -8.019423,24.635865 -0.200936,0.779525 0.577371,1.425599 1.316269,1.348284 1.331566,0.0143 2.673904,0.05413 3.999282,-0.01653 0.89842,-0.134453 0.918879,-1.212315 1.204827,-1.888733 0.414067,-1.267391 0.827969,-2.534836 1.241857,-3.802285 3.241048,0 6.482096,0 9.723145,0 0.586589,1.717532 1.089057,3.473595 1.727872,5.167186 0.407182,0.811683 1.437577,0.496202 2.169198,0.5581 1.060832,-0.04127 2.142382,0.09006 3.190058,-0.105411 0.708867,-0.196127 0.916435,-1.073868 0.581469,-1.673155 -2.78411,-8.550162 -5.58837,-17.093746 -8.38396,-25.640185 -0.255876,-0.722561 -1.077781,-0.735134 -1.719658,-0.684234 -0.811982,0.0049 -1.623963,0.0098 -2.435945,0.01464 z m 0.437746,8.827973 c 0.819653,2.49035 1.637529,4.981295 2.445323,7.475523 -1.916656,0.01837 -3.833486,0.01683 -5.750185,0.007 0.958283,-2.928465 1.916112,-5.857077 2.874124,-8.78563 0.14358,0.434366 0.287158,0.868733 0.430738,1.303099 z"
   id="path46"
   transform="scale(2.6458333)" /><path
   style="fill:#660033;stroke-width:0.0763371"
   d="m 101.70269,18.069985 c -0.75642,0.418162 -0.67764,1.457309 -0.19874,2.062147 2.50532,3.930083 5.18623,7.745118 7.7591,11.630977 -2.74358,4.146822 -5.61223,8.212182 -8.27095,12.414327 -0.51145,0.677609 -0.16914,1.885148 0.76531,1.899633 1.59254,-0.02319 3.19558,0.04592 4.78164,-0.03427 0.80937,-0.162916 1.04679,-1.107683 1.53365,-1.673276 1.617,-2.39339 3.21471,-4.794877 4.85617,-7.163667 1.93929,2.798419 3.80737,5.651298 5.74804,8.444955 0.57809,0.641143 1.53112,0.307506 2.29117,0.400594 1.21707,-0.02727 2.45281,0.099 3.65881,-0.07635 0.70888,-0.225673 0.89619,-1.172717 0.40181,-1.702906 -2.80013,-4.159804 -5.6169,-8.308407 -8.40374,-12.477134 2.6729,-4.114546 5.48752,-8.168072 8.19998,-12.269407 0.41901,-0.696674 -0.19902,-1.624806 -0.99969,-1.533601 -1.61699,-0.01611 -3.24452,-0.06089 -4.85529,0.01205 -0.80875,0.162922 -1.04697,1.106607 -1.5343,1.671443 -1.498,2.214071 -2.99226,4.446176 -4.50336,6.637403 -1.83299,-2.626328 -3.57647,-5.319501 -5.401,-7.947812 -0.57951,-0.646441 -1.53671,-0.303133 -2.29936,-0.391359 -1.10313,0.03169 -2.22126,-0.07039 -3.31474,0.04715 -0.0715,0.01637 -0.14301,0.03273 -0.21451,0.0491 z"
   id="path47"
   transform="scale(2.6458333)" /><path
   style="fill:#660033;stroke-width:0.0822368"
   d="m 130.22027,18.064639 c -0.82777,0.50501 -0.46956,1.571849 -0.54594,2.371216 0,8.196272 0,16.392544 0,24.588816 0.0216,0.761105 0.81771,1.122881 1.49343,1.000013 1.25651,-0.03762 2.53089,0.07567 3.77608,-0.05762 0.80553,-0.161087 0.80784,-1.110013 0.76012,-1.764764 0,-8.41557 0,-16.831141 0,-25.246711 -0.0216,-0.761105 -0.81771,-1.12288 -1.49343,-1.000013 -1.25651,0.03762 -2.53089,-0.07567 -3.77608,0.05762 -0.0714,0.01715 -0.14278,0.03429 -0.21418,0.05144 z"
   id="path48"
   transform="scale(2.6458333)" /><text
   xml:space="preserve"
   style="font-style:normal;font-variant:normal;font-weight:bold;font-stretch:normal;font-size:98.1316px;font-family:'Nimbus Sans';-inkscape-font-specification:'Nimbus Sans, Bold';font-variant-ligatures:normal;font-variant-caps:normal;font-variant-numeric:normal;font-variant-east-asian:normal;fill:#ffffff;stroke-width:3.06661"
   x="161.31525"
   y="121.21565"
   id="text48"
   transform="scale(1.0242595,0.97631509)"><tspan
     sodipodi:role="line"
     style="font-style:normal;font-variant:normal;font-weight:bold;font-stretch:normal;font-size:98.1316px;font-family:'Nimbus Sans';-inkscape-font-specification:'Nimbus Sans, Bold';font-variant-ligatures:normal;font-variant-caps:normal;font-variant-numeric:normal;font-variant-east-asian:normal;fill:#ffffff;stroke-width:3.06661"
     x="161.31525"
     y="121.21565"
     id="tspan49">141</tspan></text></g>
</svg>
